<?xml version="1.0" encoding="UTF-8" standalone="no"?>
<!-- Created with Inkscape (http://www.inkscape.org/) -->

<svg
   xmlns:dc="http://purl.org/dc/elements/1.1/"
   xmlns:cc="http://creativecommons.org/ns#"
   xmlns:rdf="http://www.w3.org/1999/02/22-rdf-syntax-ns#"
   xmlns:svg="http://www.w3.org/2000/svg"
   xmlns="http://www.w3.org/2000/svg"
   xmlns:xlink="http://www.w3.org/1999/xlink"
   xmlns:sodipodi="http://sodipodi.sourceforge.net/DTD/sodipodi-0.dtd"
   xmlns:inkscape="http://www.inkscape.org/namespaces/inkscape"
   id="svg3071"
   version="1.1"
   inkscape:version="0.48.4 r9939"
   width="230.36307"
   height="29"
   sodipodi:docname="autobahntestsuite.svg"
   inkscape:export-filename="F:\svnwork\tavendo\mymepad\research\Tavendo\Products\Autobahn\Design\elements\autobahnws_design.png"
   inkscape:export-xdpi="90"
   inkscape:export-ydpi="90">
  <metadata
     id="metadata3077">
    <rdf:RDF>
      <cc:Work
         rdf:about="">
        <dc:format>image/svg+xml</dc:format>
        <dc:type
           rdf:resource="http://purl.org/dc/dcmitype/StillImage" />
        <dc:title></dc:title>
      </cc:Work>
    </rdf:RDF>
  </metadata>
  <defs
     id="defs3075">
    <linearGradient
       y2="1209.3622"
       x2="77"
       y1="1297.3622"
       x1="78"
       gradientTransform="matrix(1.1821711,0,0,0.41307235,5667.0431,-6392.092)"
       gradientUnits="userSpaceOnUse"
       id="linearGradient4258-6-8-9"
       xlink:href="#linearGradient4231-5-0-9-4"
       inkscape:collect="always" />
    <linearGradient
       id="linearGradient4231-5-0-9-4">
      <stop
         style="stop-color:#848484;stop-opacity:1;"
         offset="0"
         id="stop4233-0-2-27-7" />
      <stop
         style="stop-color:#f4f4f4;stop-opacity:1;"
         offset="1"
         id="stop4235-2-4-9-8" />
    </linearGradient>
    <linearGradient
       y2="1209.3622"
       x2="77"
       y1="1297.3622"
       x1="78"
       gradientTransform="matrix(1.1821711,0,0,0.41307235,5667.0431,-6392.092)"
       gradientUnits="userSpaceOnUse"
       id="linearGradient4258-6-8-9-8"
       xlink:href="#linearGradient4231-5-0-9-4-2"
       inkscape:collect="always" />
    <linearGradient
       id="linearGradient4231-5-0-9-4-2">
      <stop
         style="stop-color:#808080;stop-opacity:1;"
         offset="0"
         id="stop4233-0-2-27-7-5" />
      <stop
         style="stop-color:#bbbbbb;stop-opacity:1;"
         offset="1"
         id="stop4235-2-4-9-8-3" />
    </linearGradient>
    <linearGradient
       y2="1209.3622"
       x2="77"
       y1="1297.3622"
       x1="78"
       gradientTransform="matrix(0.97669856,0,0,0.41307235,576.22959,-396.09025)"
       gradientUnits="userSpaceOnUse"
       id="linearGradient4330-3"
       xlink:href="#linearGradient4231-5-0-9-4-2-4"
       inkscape:collect="always" />
    <linearGradient
       id="linearGradient4231-5-0-9-4-2-4">
      <stop
         style="stop-color:#9ed106;stop-opacity:1;"
         offset="0"
         id="stop4233-0-2-27-7-5-0" />
      <stop
         style="stop-color:#f4fed5;stop-opacity:1;"
         offset="1"
         id="stop4235-2-4-9-8-3-0" />
    </linearGradient>
    <linearGradient
       y2="1209.3622"
       x2="77"
       y1="1297.3622"
       x1="78"
       gradientTransform="matrix(1.1821711,0,0,1.3427183,-42.137102,1651.952)"
       gradientUnits="userSpaceOnUse"
       id="linearGradient4305-5"
       xlink:href="#linearGradient4231-5-0-9-4-3"
       inkscape:collect="always" />
    <linearGradient
       id="linearGradient4231-5-0-9-4-3">
      <stop
         style="stop-color:#848484;stop-opacity:1;"
         offset="0"
         id="stop4233-0-2-27-7-1" />
      <stop
         style="stop-color:#f4f4f4;stop-opacity:1;"
         offset="1"
         id="stop4235-2-4-9-8-0" />
    </linearGradient>
    <linearGradient
       y2="1209.3622"
       x2="77"
       y1="1297.3622"
       x1="78"
       gradientTransform="matrix(1.1821711,0,0,0.41307235,-78.197027,4088.8658)"
       gradientUnits="userSpaceOnUse"
       id="linearGradient4330-3-5"
       xlink:href="#linearGradient4231-5-0-9-4-2-4-4"
       inkscape:collect="always" />
    <linearGradient
       id="linearGradient4231-5-0-9-4-2-4-4">
      <stop
         style="stop-color:#a1d700;stop-opacity:1;"
         offset="0"
         id="stop4233-0-2-27-7-5-0-2" />
      <stop
         style="stop-color:#f4fed5;stop-opacity:1;"
         offset="1"
         id="stop4235-2-4-9-8-3-0-5" />
    </linearGradient>
    <linearGradient
       y2="1209.3622"
       x2="77"
       y1="1297.3622"
       x1="78"
       gradientTransform="matrix(0.97669847,0,0,1.3991107,576.22957,-817.29345)"
       gradientUnits="userSpaceOnUse"
       id="linearGradient8253"
       xlink:href="#linearGradient4231-5-0-9-4-2-4-4"
       inkscape:collect="always" />
    <linearGradient
       y2="1209.3622"
       x2="77"
       y1="1297.3622"
       x1="78"
       gradientTransform="matrix(0.97669856,0,0,0.41307235,116.22959,4088.8658)"
       gradientUnits="userSpaceOnUse"
       id="linearGradient4330-3-3"
       xlink:href="#linearGradient4231-5-0-9-4-2-4-9"
       inkscape:collect="always" />
    <linearGradient
       id="linearGradient4231-5-0-9-4-2-4-9">
      <stop
         style="stop-color:#9ed106;stop-opacity:1;"
         offset="0"
         id="stop4233-0-2-27-7-5-0-4" />
      <stop
         style="stop-color:#f4fed5;stop-opacity:1;"
         offset="1"
         id="stop4235-2-4-9-8-3-0-56" />
    </linearGradient>
    <linearGradient
       inkscape:collect="always"
       xlink:href="#linearGradient4231-5-0-9-4-2-4-9-6"
       id="linearGradient8412-5"
       gradientUnits="userSpaceOnUse"
       gradientTransform="matrix(0.04359867,0,0,0.2722703,31.222194,4718.9664)"
       x1="78"
       y1="1297.3622"
       x2="77"
       y2="1209.3622" />
    <linearGradient
       id="linearGradient4231-5-0-9-4-2-4-9-6">
      <stop
         style="stop-color:#9ed106;stop-opacity:1;"
         offset="0"
         id="stop4233-0-2-27-7-5-0-4-6" />
      <stop
         style="stop-color:#f4fed5;stop-opacity:1;"
         offset="1"
         id="stop4235-2-4-9-8-3-0-56-1" />
    </linearGradient>
    <linearGradient
       inkscape:collect="always"
       xlink:href="#linearGradient4231-5-0-9-4-2-4-9-8"
       id="linearGradient8412-6"
       gradientUnits="userSpaceOnUse"
       gradientTransform="matrix(0.04359867,0,0,0.2722703,31.222194,4718.9664)"
       x1="78"
       y1="1297.3622"
       x2="77"
       y2="1209.3622" />
    <linearGradient
       id="linearGradient4231-5-0-9-4-2-4-9-8">
      <stop
         style="stop-color:#9ed106;stop-opacity:1;"
         offset="0"
         id="stop4233-0-2-27-7-5-0-4-2" />
      <stop
         style="stop-color:#f4fed5;stop-opacity:1;"
         offset="1"
         id="stop4235-2-4-9-8-3-0-56-5" />
    </linearGradient>
    <linearGradient
       inkscape:collect="always"
       xlink:href="#linearGradient4231-5-0-9-4-2-4-9-7"
       id="linearGradient8412-51"
       gradientUnits="userSpaceOnUse"
       gradientTransform="matrix(0.04359867,0,0,0.2722703,31.222194,4718.9664)"
       x1="78"
       y1="1297.3622"
       x2="77"
       y2="1209.3622" />
    <linearGradient
       id="linearGradient4231-5-0-9-4-2-4-9-7">
      <stop
         style="stop-color:#9ed106;stop-opacity:1;"
         offset="0"
         id="stop4233-0-2-27-7-5-0-4-60" />
      <stop
         style="stop-color:#f4fed5;stop-opacity:1;"
         offset="1"
         id="stop4235-2-4-9-8-3-0-56-0" />
    </linearGradient>
    <linearGradient
       id="linearGradient4231-5-0-9-4-2-4-9-1">
      <stop
         style="stop-color:#9ed106;stop-opacity:1;"
         offset="0"
         id="stop4233-0-2-27-7-5-0-4-3" />
      <stop
         style="stop-color:#f4fed5;stop-opacity:1;"
         offset="1"
         id="stop4235-2-4-9-8-3-0-56-8" />
    </linearGradient>
    <linearGradient
       inkscape:collect="always"
       xlink:href="#linearGradient4231-5-0-9-4-2-4-9-1"
       id="linearGradient4221"
       gradientUnits="userSpaceOnUse"
       gradientTransform="matrix(0.04359867,0,0,0.2722703,876.0762,-592.8922)"
       x1="78"
       y1="1297.3622"
       x2="77"
       y2="1209.3622" />
    <linearGradient
       inkscape:collect="always"
       xlink:href="#linearGradient4231-5-0-9-4-2-4-9-1-3"
       id="linearGradient4221-9"
       gradientUnits="userSpaceOnUse"
       gradientTransform="matrix(0.04359867,0,0,0.2722703,876.0762,-592.8922)"
       x1="78"
       y1="1297.3622"
       x2="77"
       y2="1209.3622" />
    <linearGradient
       id="linearGradient4231-5-0-9-4-2-4-9-1-3">
      <stop
         style="stop-color:#9ed106;stop-opacity:1;"
         offset="0"
         id="stop4233-0-2-27-7-5-0-4-3-1" />
      <stop
         style="stop-color:#f4fed5;stop-opacity:1;"
         offset="1"
         id="stop4235-2-4-9-8-3-0-56-8-9" />
    </linearGradient>
    <linearGradient
       y2="1209.3622"
       x2="77"
       y1="1297.3622"
       x1="78"
       gradientTransform="matrix(0.04359867,0,0,0.2722703,876.07619,-134.87346)"
       gradientUnits="userSpaceOnUse"
       id="linearGradient4238"
       xlink:href="#linearGradient4231-5-0-9-4-2-4-9-1-3"
       inkscape:collect="always" />
    <linearGradient
       inkscape:collect="always"
       xlink:href="#linearGradient4231-5-0-9-4-2-4-9"
       id="linearGradient4260"
       gradientUnits="userSpaceOnUse"
       gradientTransform="matrix(0.04359867,0,0,0.2722703,559.22219,237.0103)"
       x1="78"
       y1="1297.3622"
       x2="77"
       y2="1209.3622" />
    <linearGradient
       id="linearGradient4231-5-0-9-4-2-4-9-7-3">
      <stop
         style="stop-color:#9ed106;stop-opacity:1;"
         offset="0"
         id="stop4233-0-2-27-7-5-0-4-60-4" />
      <stop
         style="stop-color:#f4fed5;stop-opacity:1;"
         offset="1"
         id="stop4235-2-4-9-8-3-0-56-0-4" />
    </linearGradient>
    <linearGradient
       id="linearGradient4231-5-0-9-4-2-4-9-8-0">
      <stop
         style="stop-color:#9ed106;stop-opacity:1;"
         offset="0"
         id="stop4233-0-2-27-7-5-0-4-2-6" />
      <stop
         style="stop-color:#f4fed5;stop-opacity:1;"
         offset="1"
         id="stop4235-2-4-9-8-3-0-56-5-6" />
    </linearGradient>
    <linearGradient
       id="linearGradient4231-5-0-9-4-2-4-9-6-8">
      <stop
         style="stop-color:#9ed106;stop-opacity:1;"
         offset="0"
         id="stop4233-0-2-27-7-5-0-4-6-4" />
      <stop
         style="stop-color:#f4fed5;stop-opacity:1;"
         offset="1"
         id="stop4235-2-4-9-8-3-0-56-1-9" />
    </linearGradient>
    <linearGradient
       id="linearGradient4231-5-0-9-4-2-4-9-3">
      <stop
         style="stop-color:#9ed106;stop-opacity:1;"
         offset="0"
         id="stop4233-0-2-27-7-5-0-4-7" />
      <stop
         style="stop-color:#f4fed5;stop-opacity:1;"
         offset="1"
         id="stop4235-2-4-9-8-3-0-56-88" />
    </linearGradient>
    <linearGradient
       inkscape:collect="always"
       xlink:href="#linearGradient4639-1"
       id="linearGradient4645-0"
       x1="2113.3333"
       y1="648.65735"
       x2="2114.6667"
       y2="427.32401"
       gradientUnits="userSpaceOnUse"
       gradientTransform="matrix(1.4320388,0,0,0.86486487,-1013.7088,84.196936)" />
    <linearGradient
       inkscape:collect="always"
       id="linearGradient4639-1">
      <stop
         style="stop-color:#9ed106;stop-opacity:1;"
         offset="0"
         id="stop4641-6" />
      <stop
         style="stop-color:#9ed106;stop-opacity:0;"
         offset="1"
         id="stop4643-4" />
    </linearGradient>
    <linearGradient
       inkscape:collect="always"
       xlink:href="#linearGradient4639-18"
       id="linearGradient4645-6"
       x1="2113.3333"
       y1="648.65735"
       x2="2114.6667"
       y2="427.32401"
       gradientUnits="userSpaceOnUse"
       gradientTransform="matrix(1.4320388,0,0,0.86486487,-1013.7088,84.196936)" />
    <linearGradient
       inkscape:collect="always"
       id="linearGradient4639-18">
      <stop
         style="stop-color:#9ed106;stop-opacity:1;"
         offset="0"
         id="stop4641-9" />
      <stop
         style="stop-color:#9ed106;stop-opacity:0;"
         offset="1"
         id="stop4643-8" />
    </linearGradient>
    <linearGradient
       inkscape:collect="always"
       xlink:href="#linearGradient4639-3"
       id="linearGradient4645-4"
       x1="2113.3333"
       y1="648.65735"
       x2="2114.6667"
       y2="427.32401"
       gradientUnits="userSpaceOnUse"
       gradientTransform="matrix(1.4320388,0,0,0.86486487,-1013.7088,84.196936)" />
    <linearGradient
       inkscape:collect="always"
       id="linearGradient4639-3">
      <stop
         style="stop-color:#9ed106;stop-opacity:1;"
         offset="0"
         id="stop4641-98" />
      <stop
         style="stop-color:#9ed106;stop-opacity:0;"
         offset="1"
         id="stop4643-80" />
    </linearGradient>
    <linearGradient
       inkscape:collect="always"
       xlink:href="#linearGradient4231-5-0-9-4-2-4-9-7-31"
       id="linearGradient8412-51-3"
       gradientUnits="userSpaceOnUse"
       gradientTransform="matrix(0.04359867,0,0,0.2722703,31.222194,4718.9664)"
       x1="78"
       y1="1297.3622"
       x2="77"
       y2="1209.3622" />
    <linearGradient
       id="linearGradient4231-5-0-9-4-2-4-9-7-31">
      <stop
         style="stop-color:#9ed106;stop-opacity:1;"
         offset="0"
         id="stop4233-0-2-27-7-5-0-4-60-0" />
      <stop
         style="stop-color:#f4fed5;stop-opacity:1;"
         offset="1"
         id="stop4235-2-4-9-8-3-0-56-0-8" />
    </linearGradient>
    <linearGradient
       inkscape:collect="always"
       xlink:href="#linearGradient4231-5-0-9-4-2-4-9-8-09"
       id="linearGradient8412-6-1"
       gradientUnits="userSpaceOnUse"
       gradientTransform="matrix(0.04359867,0,0,0.2722703,31.222194,4718.9664)"
       x1="78"
       y1="1297.3622"
       x2="77"
       y2="1209.3622" />
    <linearGradient
       id="linearGradient4231-5-0-9-4-2-4-9-8-09">
      <stop
         style="stop-color:#9ed106;stop-opacity:1;"
         offset="0"
         id="stop4233-0-2-27-7-5-0-4-2-2" />
      <stop
         style="stop-color:#f4fed5;stop-opacity:1;"
         offset="1"
         id="stop4235-2-4-9-8-3-0-56-5-4" />
    </linearGradient>
    <linearGradient
       inkscape:collect="always"
       xlink:href="#linearGradient4231-5-0-9-4-2-4-9-6-1"
       id="linearGradient8412-5-9"
       gradientUnits="userSpaceOnUse"
       gradientTransform="matrix(0.04359867,0,0,0.2722703,31.222194,4718.9664)"
       x1="78"
       y1="1297.3622"
       x2="77"
       y2="1209.3622" />
    <linearGradient
       id="linearGradient4231-5-0-9-4-2-4-9-6-1">
      <stop
         style="stop-color:#9ed106;stop-opacity:1;"
         offset="0"
         id="stop4233-0-2-27-7-5-0-4-6-5" />
      <stop
         style="stop-color:#f4fed5;stop-opacity:1;"
         offset="1"
         id="stop4235-2-4-9-8-3-0-56-1-7" />
    </linearGradient>
    <linearGradient
       inkscape:collect="always"
       xlink:href="#linearGradient4231-5-0-9-4-2-4-9-34"
       id="linearGradient4260-3"
       gradientUnits="userSpaceOnUse"
       gradientTransform="matrix(0.04359867,0,0,0.2722703,2245.2222,237.40614)"
       x1="78"
       y1="1297.3622"
       x2="77"
       y2="1209.3622" />
    <linearGradient
       id="linearGradient4231-5-0-9-4-2-4-9-34">
      <stop
         style="stop-color:#9ed106;stop-opacity:1;"
         offset="0"
         id="stop4233-0-2-27-7-5-0-4-22" />
      <stop
         style="stop-color:#f4fed5;stop-opacity:1;"
         offset="1"
         id="stop4235-2-4-9-8-3-0-56-01" />
    </linearGradient>
    <linearGradient
       y2="1209.3622"
       x2="77"
       y1="1297.3622"
       x1="78"
       gradientTransform="matrix(0.97669847,0,0,1.3991107,2262.2296,-816.89761)"
       gradientUnits="userSpaceOnUse"
       id="linearGradient8253-2"
       xlink:href="#linearGradient4231-5-0-9-4-2-4-4-7"
       inkscape:collect="always" />
    <linearGradient
       id="linearGradient4231-5-0-9-4-2-4-4-7">
      <stop
         style="stop-color:#a1d700;stop-opacity:1;"
         offset="0"
         id="stop4233-0-2-27-7-5-0-2-7" />
      <stop
         style="stop-color:#f4fed5;stop-opacity:1;"
         offset="1"
         id="stop4235-2-4-9-8-3-0-5-0" />
    </linearGradient>
    <linearGradient
       y2="1209.3622"
       x2="77"
       y1="1297.3622"
       x1="78"
       gradientTransform="matrix(0.97669856,0,0,0.41307235,2262.2296,-395.69441)"
       gradientUnits="userSpaceOnUse"
       id="linearGradient4330-3-2"
       xlink:href="#linearGradient4231-5-0-9-4-2-4-41"
       inkscape:collect="always" />
    <linearGradient
       id="linearGradient4231-5-0-9-4-2-4-41">
      <stop
         style="stop-color:#9ed106;stop-opacity:1;"
         offset="0"
         id="stop4233-0-2-27-7-5-0-0" />
      <stop
         style="stop-color:#f4fed5;stop-opacity:1;"
         offset="1"
         id="stop4235-2-4-9-8-3-0-3" />
    </linearGradient>
  </defs>
  <sodipodi:namedview
     pagecolor="#ffffff"
     bordercolor="#666666"
     borderopacity="1"
     objecttolerance="10"
     gridtolerance="10"
     guidetolerance="10"
     inkscape:pageopacity="0"
     inkscape:pageshadow="2"
     inkscape:window-width="1858"
     inkscape:window-height="1178"
     id="namedview3073"
     showgrid="false"
     inkscape:zoom="2"
     inkscape:cx="159.18352"
     inkscape:cy="17.955883"
     inkscape:window-x="1016"
     inkscape:window-y="-8"
     inkscape:window-maximized="1"
     inkscape:current-layer="svg3071"
     fit-margin-top="2"
     fit-margin-left="2"
     fit-margin-right="2"
     fit-margin-bottom="2"
     showguides="true"
     inkscape:guide-bbox="true" />
  <g
     id="g3925"
     transform="matrix(0.6751848,0,0,0.6751848,-26.921068,-5.5931958)">
    <path
       inkscape:connector-curvature="0"
       id="path3083"
       d="m 73.1725,41.4812 -6.641,0 -2.6399,-6.8679 -12.0858,0 -2.4955,6.8679 -6.476,0 11.7764,-30.2351 6.4554,0 z M 61.9323,29.5192 57.7662,18.2996 53.6826,29.5192 z"
       style="font-size:42.23834229px;font-style:normal;font-variant:normal;font-weight:bold;font-stretch:normal;text-align:start;line-height:125%;letter-spacing:0px;word-spacing:0px;writing-mode:lr-tb;text-anchor:start;fill:#027eae;fill-opacity:1;stroke:none;font-family:Sans;-inkscape-font-specification:Sans Bold" />
    <path
       inkscape:connector-curvature="0"
       id="path3085"
       d="m 90.8061,41.4812 0,-3.2793 c -0.7974,1.1688 -1.8458,2.09 -3.1451,2.7637 -1.2994,0.6737 -2.6709,1.0106 -4.1146,1.0106 -1.4712,0 -2.7911,-0.3231 -3.9598,-0.9694 -1.1687,-0.6462 -2.0143,-1.5537 -2.5368,-2.7224 -0.5225,-1.1687 -0.7837,-2.7842 -0.7837,-4.8466 l 0,-13.8595 5.7954,0 0,10.0646 c 0,3.0799 0.1065,4.967 0.3197,5.6613 0.2131,0.6944 0.6015,1.2444 1.1652,1.65 0.5638,0.4056 1.2787,0.6084 2.145,0.6084 0.9899,0 1.8767,-0.2716 2.6605,-0.8147 0.7837,-0.5431 1.3199,-1.2168 1.6087,-2.0211 0.2887,-0.8044 0.433,-2.774 0.4331,-5.9089 l 0,-9.2396 5.7954,0 0,21.9029 z"
       style="font-size:42.23834229px;font-style:normal;font-variant:normal;font-weight:bold;font-stretch:normal;text-align:start;line-height:125%;letter-spacing:0px;word-spacing:0px;writing-mode:lr-tb;text-anchor:start;fill:#027eae;fill-opacity:1;stroke:none;font-family:Sans;-inkscape-font-specification:Sans Bold" />
    <path
       inkscape:connector-curvature="0"
       id="path3087"
       d="m 112.2553,19.5783 0,4.6198 -3.9598,0 0,8.8272 c 0,1.7874 0.038,2.8289 0.1134,3.1245 0.076,0.2957 0.2475,0.5397 0.5156,0.7322 0.2681,0.1925 0.5947,0.2887 0.9797,0.2887 0.5362,0 1.313,-0.1856 2.3305,-0.5568 l 0.495,4.4961 c -1.3475,0.5774 -2.8737,0.8662 -4.5786,0.8662 -1.045,0 -1.9868,-0.1753 -2.8255,-0.5259 -0.8387,-0.3507 -1.454,-0.8044 -1.8459,-1.3612 -0.3918,-0.5569 -0.6634,-1.3097 -0.8146,-2.2584 -0.1238,-0.6737 -0.1857,-2.0349 -0.1857,-4.0836 l 0,-9.549 -2.6605,0 0,-4.6198 2.6605,0 0,-4.3517 5.8161,-3.3824 0,7.7341 z"
       style="font-size:42.23834229px;font-style:normal;font-variant:normal;font-weight:bold;font-stretch:normal;text-align:start;line-height:125%;letter-spacing:0px;word-spacing:0px;writing-mode:lr-tb;text-anchor:start;fill:#027eae;fill-opacity:1;stroke:none;font-family:Sans;-inkscape-font-specification:Sans Bold" />
    <path
       inkscape:connector-curvature="0"
       id="path3089"
       d="m 114.9777,30.2204 c 0,-1.9249 0.4744,-3.788 1.4231,-5.5892 0.9487,-1.8011 2.2927,-3.1761 4.032,-4.1248 1.7393,-0.9487 3.6814,-1.4231 5.8263,-1.4231 3.3136,0 6.0292,1.0759 8.1466,3.2277 2.1174,2.1518 3.1761,4.8708 3.1761,8.1569 0,3.3136 -1.069,6.0601 -3.2071,8.2393 -2.138,2.1793 -4.8295,3.269 -8.0743,3.269 -2.0075,0 -3.9221,-0.4538 -5.7439,-1.3612 -1.8218,-0.9075 -3.207,-2.2377 -4.1557,-3.9908 -0.9487,-1.7531 -1.4231,-3.8877 -1.4231,-6.4038 z m 5.9398,0.3093 c 0,2.1725 0.5156,3.8362 1.5468,4.9911 1.0312,1.155 2.303,1.7324 3.8155,1.7324 1.5124,0 2.7808,-0.5774 3.8051,-1.7324 1.0243,-1.1549 1.5365,-2.8324 1.5365,-5.0323 0,-2.1449 -0.5122,-3.7948 -1.5365,-4.9498 -1.0243,-1.1549 -2.2927,-1.7324 -3.8051,-1.7324 -1.5125,0 -2.7843,0.5775 -3.8155,1.7324 -1.0312,1.155 -1.5468,2.8186 -1.5468,4.991 z"
       style="font-size:42.23834229px;font-style:normal;font-variant:normal;font-weight:bold;font-stretch:normal;text-align:start;line-height:125%;letter-spacing:0px;word-spacing:0px;writing-mode:lr-tb;text-anchor:start;fill:#027eae;fill-opacity:1;stroke:none;font-family:Sans;-inkscape-font-specification:Sans Bold" />
    <path
       inkscape:connector-curvature="0"
       id="path3091"
       d="m 141.8923,41.4812 0,-30.2351 5.7954,0 0,10.8896 c 1.7874,-2.0349 3.9048,-3.0524 6.3522,-3.0524 2.6674,0 4.8742,0.9659 6.6204,2.8977 1.7461,1.9318 2.6192,4.7058 2.6193,8.3219 -10e-5,3.7398 -0.8903,6.6204 -2.6709,8.6415 -1.7806,2.0212 -3.9427,3.0318 -6.4863,3.0318 -1.2512,0 -2.4852,-0.3128 -3.702,-0.9384 -1.2169,-0.6256 -2.2653,-1.5503 -3.1452,-2.774 l 0,3.2174 z m 5.7541,-11.4258 c 0,2.2687 0.3575,3.9461 1.0725,5.0323 1.0037,1.5399 2.3374,2.3099 4.0011,2.3099 1.2787,0 2.3683,-0.5465 3.2689,-1.6396 0.9006,-1.0931 1.3509,-2.8152 1.3509,-5.1664 0,-2.5024 -0.4538,-4.307 -1.3612,-5.4138 -0.9075,-1.1068 -2.0693,-1.6603 -3.4855,-1.6603 -1.3887,0 -2.5437,0.5397 -3.4649,1.619 -0.9212,1.0794 -1.3818,2.719 -1.3818,4.9189 z"
       style="font-size:42.23834229px;font-style:normal;font-variant:normal;font-weight:bold;font-stretch:normal;text-align:start;line-height:125%;letter-spacing:0px;word-spacing:0px;writing-mode:lr-tb;text-anchor:start;fill:#027eae;fill-opacity:1;stroke:none;font-family:Sans;-inkscape-font-specification:Sans Bold" />
    <path
       inkscape:connector-curvature="0"
       id="path3093"
       d="m 172.2923,26.2605 -5.2591,-0.9487 c 0.5912,-2.1174 1.6086,-3.6848 3.0523,-4.7023 1.4437,-1.0174 3.5886,-1.5262 6.4348,-1.5262 2.5849,0 4.5098,0.306 5.7748,0.9178 1.2649,0.6119 2.1552,1.3887 2.6708,2.3305 0.5156,0.9419 0.7734,2.6709 0.7734,5.187 l -0.062,6.7647 c 0,1.925 0.093,3.3446 0.2785,4.2589 0.1855,0.9144 0.5327,1.894 1.0415,2.939 l -5.7336,0 c -0.1512,-0.385 -0.3368,-0.9556 -0.5568,-1.7118 -0.096,-0.3438 -0.165,-0.5706 -0.2062,-0.6806 -0.99,0.9624 -2.0487,1.6843 -3.1762,2.1655 -1.1274,0.4813 -2.3305,0.7219 -3.6092,0.7219 -2.2549,0 -4.032,-0.6119 -5.3314,-1.8356 -1.2993,-1.2237 -1.9489,-2.7705 -1.9489,-4.6404 0,-1.2375 0.2956,-2.3409 0.8868,-3.3102 0.5912,-0.9693 1.4196,-1.7118 2.4852,-2.2274 1.0656,-0.5156 2.6021,-0.9659 4.6095,-1.3509 2.7086,-0.5087 4.5854,-0.9831 5.6304,-1.4231 l 0,-0.5774 c 0,-1.1137 -0.275,-1.9078 -0.8249,-2.3821 -0.55,-0.4744 -1.5881,-0.7116 -3.1143,-0.7116 -1.0312,0 -1.8356,0.2028 -2.413,0.6084 -0.5775,0.4057 -1.045,1.1172 -1.4025,2.1346 z m 7.7547,4.7024 c -0.7425,0.2475 -1.918,0.5431 -3.5267,0.8868 -1.6087,0.3437 -2.6605,0.6806 -3.1555,1.0106 -0.7562,0.5362 -1.1344,1.2168 -1.1343,2.0418 -1e-4,0.8112 0.3024,1.5124 0.9074,2.1036 0.605,0.5913 1.375,0.8869 2.3099,0.8869 1.045,0 2.0418,-0.3438 2.9905,-1.0312 0.7012,-0.5225 1.1618,-1.1619 1.3819,-1.9181 0.1512,-0.495 0.2268,-1.4368 0.2268,-2.8255 z"
       style="font-size:42.23834229px;font-style:normal;font-variant:normal;font-weight:bold;font-stretch:normal;text-align:start;line-height:125%;letter-spacing:0px;word-spacing:0px;writing-mode:lr-tb;text-anchor:start;fill:#027eae;fill-opacity:1;stroke:none;font-family:Sans;-inkscape-font-specification:Sans Bold" />
    <path
       inkscape:connector-curvature="0"
       id="path3095"
       d="m 197.2476,11.2461 0,11.1165 c 1.8699,-2.1862 4.1042,-3.2793 6.7029,-3.2793 1.3336,0 2.5367,0.2475 3.6092,0.7425 1.0724,0.495 1.8802,1.1275 2.4233,1.8974 0.5431,0.77 0.9143,1.6225 1.1137,2.5574 0.1994,0.935 0.2991,2.3856 0.2991,4.3517 l 0,12.8489 -5.7954,0 0,-11.5702 c 0,-2.2961 -0.11,-3.7536 -0.33,-4.3723 -0.22,-0.6187 -0.6084,-1.1103 -1.1653,-1.4746 -0.5568,-0.3644 -1.2546,-0.5466 -2.0933,-0.5466 -0.9625,0 -1.8218,0.2338 -2.578,0.7012 -0.7563,0.4675 -1.3097,1.1722 -1.6603,2.114 -0.3506,0.9419 -0.5259,2.334 -0.5259,4.1764 l 0,10.9721 -5.7954,0 0,-30.2351 z"
       style="font-size:42.23834229px;font-style:normal;font-variant:normal;font-weight:bold;font-stretch:normal;text-align:start;line-height:125%;letter-spacing:0px;word-spacing:0px;writing-mode:lr-tb;text-anchor:start;fill:#027eae;fill-opacity:1;stroke:none;font-family:Sans;-inkscape-font-specification:Sans Bold" />
    <path
       inkscape:connector-curvature="0"
       id="path3097"
       d="m 237.2173,41.4812 -5.7954,0 0,-11.1783 c 0,-2.3649 -0.1238,-3.8945 -0.3713,-4.5889 -0.2475,-0.6943 -0.6496,-1.234 -1.2065,-1.619 -0.5568,-0.385 -1.2271,-0.5775 -2.0108,-0.5775 -1.0038,0 -1.9043,0.275 -2.7018,0.825 -0.7975,0.55 -1.344,1.2787 -1.6396,2.1862 -0.2956,0.9074 -0.4435,2.5849 -0.4434,5.0323 l 0,9.9202 -5.7954,0 0,-21.9029 5.3829,0 0,3.2174 c 1.9111,-2.4749 4.3173,-3.7124 7.2184,-3.7124 1.2787,0 2.4474,0.2303 3.5062,0.6909 1.0586,0.4607 1.8595,1.0484 2.4027,1.7634 0.5431,0.715 0.9212,1.5262 1.1343,2.4337 0.2131,0.9074 0.3197,2.2068 0.3197,3.8979 z"
       style="font-size:42.23834229px;font-style:normal;font-variant:normal;font-weight:bold;font-stretch:normal;text-align:start;line-height:125%;letter-spacing:0px;word-spacing:0px;writing-mode:lr-tb;text-anchor:start;fill:#027eae;fill-opacity:1;stroke:none;font-family:Sans;-inkscape-font-specification:Sans Bold" />
    <path
       inkscape:connector-curvature="0"
       id="path3099"
       d="m 243.0466,48.273 0,-30.2874 2.4741,0 0,30.2874 z"
       style="font-size:42.23834229px;font-style:normal;font-variant:normal;font-weight:bold;font-stretch:normal;text-align:start;line-height:125%;letter-spacing:0px;word-spacing:0px;writing-mode:lr-tb;text-anchor:start;fill:#b5db42;fill-opacity:1;stroke:none;font-family:Sans;-inkscape-font-specification:Sans Bold" />
    <path
       inkscape:connector-curvature="0"
       id="path3101"
       style="font-size:32.272995px;font-style:normal;font-variant:normal;font-weight:normal;font-stretch:normal;text-align:start;line-height:125%;letter-spacing:0px;word-spacing:0px;writing-mode:lr-tb;text-anchor:start;fill:#666666;fill-opacity:1;stroke:none;font-family:Sans;-inkscape-font-specification:Sans"
       d="m 256.8351,41.4812 0,-20.3755 -7.6112,0 0,-2.7262 18.3111,0 0,2.7262 -7.6428,0 0,20.3755 z" />
    <path
       inkscape:connector-curvature="0"
       id="path3103"
       style="font-size:32.272995px;font-style:normal;font-variant:normal;font-weight:normal;font-stretch:normal;text-align:start;line-height:125%;letter-spacing:0px;word-spacing:0px;writing-mode:lr-tb;text-anchor:start;fill:#666666;fill-opacity:1;stroke:none;font-family:Sans;-inkscape-font-specification:Sans"
       d="m 281.7805,36.0919 2.931,0.3624 c -0.4622,1.7124 -1.3184,3.0413 -2.5686,3.9868 -1.2501,0.9455 -2.847,1.4183 -4.7905,1.4183 -2.4478,0 -4.3887,-0.7538 -5.8227,-2.2613 -1.434,-1.5076 -2.151,-3.6218 -2.151,-6.3427 0,-2.8155 0.7249,-5.0007 2.1747,-6.5555 1.4497,-1.5548 3.3302,-2.3322 5.6414,-2.3322 2.2377,0 4.0657,0.7616 5.4839,2.2849 1.4183,1.5233 2.1274,3.6665 2.1274,6.4294 0,0.1681 -0.01,0.4202 -0.016,0.7564 l -12.4805,0 c 0.105,1.8385 0.625,3.2462 1.56,4.2232 0.935,0.9771 2.1011,1.4656 3.4984,1.4656 1.04,0 1.9277,-0.2732 2.6631,-0.8195 0.7354,-0.5463 1.3185,-1.4182 1.7492,-2.6158 z m -9.3132,-4.5857 9.3447,0 c -0.1261,-1.4077 -0.4833,-2.4635 -1.0715,-3.1674 -0.9035,-1.0926 -2.0749,-1.6389 -3.5141,-1.6389 -1.3027,0 -2.3979,0.436 -3.2857,1.3079 -0.8877,0.872 -1.3788,2.0381 -1.4734,3.4984 z" />
    <path
       inkscape:connector-curvature="0"
       id="path3105"
       style="font-size:32.272995px;font-style:normal;font-variant:normal;font-weight:normal;font-stretch:normal;text-align:start;line-height:125%;letter-spacing:0px;word-spacing:0px;writing-mode:lr-tb;text-anchor:start;fill:#666666;fill-opacity:1;stroke:none;font-family:Sans;-inkscape-font-specification:Sans"
       d="m 287.1541,36.4858 2.805,-0.4412 c 0.1575,1.1241 0.5961,1.9855 1.3158,2.5843 0.7196,0.5989 1.7255,0.8983 3.0177,0.8983 1.3027,0 2.2692,-0.2653 2.8995,-0.7958 0.6303,-0.5306 0.9455,-1.153 0.9455,-1.8674 0,-0.6408 -0.2784,-1.1451 -0.8352,-1.5128 -0.3887,-0.2521 -1.3552,-0.5725 -2.8995,-0.9612 -2.0801,-0.5253 -3.522,-0.9797 -4.3257,-1.3631 -0.8036,-0.3835 -1.413,-0.914 -1.8279,-1.5916 -0.415,-0.6776 -0.6225,-1.4261 -0.6225,-2.2456 0,-0.7459 0.1707,-1.4366 0.5122,-2.0722 0.3414,-0.6356 0.8063,-1.1635 1.3946,-1.5837 0.4412,-0.3257 1.0427,-0.6014 1.8043,-0.8273 0.7617,-0.2259 1.5785,-0.3388 2.4504,-0.3388 1.3132,0 2.4662,0.1891 3.459,0.5673 0.9927,0.3782 1.7255,0.8903 2.1983,1.5364 0.4727,0.6461 0.7984,1.5102 0.977,2.5923 l -2.7735,0.3782 c -0.1261,-0.8615 -0.4911,-1.5338 -1.0952,-2.0171 -0.6041,-0.4833 -1.4576,-0.7249 -2.5607,-0.7249 -1.3027,0 -2.2324,0.2154 -2.7892,0.6461 -0.5568,0.4307 -0.8352,0.935 -0.8352,1.5128 0,0.3677 0.1155,0.6986 0.3467,0.9928 0.2311,0.3046 0.5935,0.5568 1.0873,0.7564 0.2836,0.105 1.1188,0.3467 2.5055,0.7248 2.0066,0.5358 3.4065,0.9744 4.1996,1.3159 0.7932,0.3414 1.4156,0.8378 1.8674,1.4891 0.4517,0.6514 0.6776,1.4603 0.6776,2.4268 0,0.9455 -0.2758,1.8358 -0.8273,2.671 -0.5516,0.8352 -1.3474,1.4813 -2.3874,1.9383 -1.0401,0.457 -2.2167,0.6855 -3.5299,0.6855 -2.1746,0 -3.8318,-0.4517 -4.9717,-1.3552 -1.1398,-0.9035 -1.8674,-2.243 -2.1825,-4.0184 z" />
    <path
       inkscape:connector-curvature="0"
       id="path3107"
       style="font-size:32.272995px;font-style:normal;font-variant:normal;font-weight:normal;font-stretch:normal;text-align:start;line-height:125%;letter-spacing:0px;word-spacing:0px;writing-mode:lr-tb;text-anchor:start;fill:#666666;fill-opacity:1;stroke:none;font-family:Sans;-inkscape-font-specification:Sans"
       d="m 310.6182,38.9441 0.4097,2.5056 c -0.7984,0.1681 -1.5128,0.2521 -2.1431,0.2521 -1.0296,0 -1.828,-0.1628 -2.3953,-0.4885 -0.5673,-0.3257 -0.9665,-0.7538 -1.1976,-1.2843 -0.2311,-0.5305 -0.3467,-1.6467 -0.3467,-3.3486 l 0,-9.6284 -2.0801,0 0,-2.2061 2.0801,0 0,-4.1445 2.8207,-1.7018 0,5.8463 2.8523,0 0,2.2061 -2.8523,0 0,9.7859 c 0,0.809 0.05,1.329 0.1497,1.5601 0.1,0.2311 0.2627,0.415 0.4886,0.5516 0.2258,0.1365 0.5489,0.2048 0.9691,0.2048 0.3151,0 0.7301,-0.037 1.2449,-0.1103 z" />
    <path
       inkscape:connector-curvature="0"
       id="path3109"
       style="font-size:32.272995px;font-style:normal;font-variant:normal;font-weight:normal;font-stretch:normal;text-align:start;line-height:125%;letter-spacing:0px;word-spacing:0px;writing-mode:lr-tb;text-anchor:start;fill:#666666;fill-opacity:1;stroke:none;font-family:Sans;-inkscape-font-specification:Sans"
       d="m 312.2413,36.4858 2.805,-0.4412 c 0.1576,1.1241 0.5962,1.9855 1.3158,2.5843 0.7196,0.5989 1.7255,0.8983 3.0177,0.8983 1.3027,0 2.2692,-0.2653 2.8995,-0.7958 0.6304,-0.5306 0.9455,-1.153 0.9455,-1.8674 0,-0.6408 -0.2784,-1.1451 -0.8352,-1.5128 -0.3887,-0.2521 -1.3552,-0.5725 -2.8995,-0.9612 -2.0801,-0.5253 -3.522,-0.9797 -4.3256,-1.3631 -0.8037,-0.3835 -1.413,-0.914 -1.828,-1.5916 -0.415,-0.6776 -0.6225,-1.4261 -0.6225,-2.2456 0,-0.7459 0.1708,-1.4366 0.5122,-2.0722 0.3414,-0.6356 0.8063,-1.1635 1.3946,-1.5837 0.4412,-0.3257 1.0427,-0.6014 1.8043,-0.8273 0.7617,-0.2259 1.5785,-0.3388 2.4504,-0.3388 1.3132,0 2.4662,0.1891 3.459,0.5673 0.9928,0.3782 1.7255,0.8903 2.1983,1.5364 0.4727,0.6461 0.7984,1.5102 0.977,2.5923 l -2.7735,0.3782 c -0.1261,-0.8615 -0.4911,-1.5338 -1.0952,-2.0171 -0.6041,-0.4833 -1.4576,-0.7249 -2.5607,-0.7249 -1.3027,0 -2.2324,0.2154 -2.7892,0.6461 -0.5568,0.4307 -0.8352,0.935 -0.8352,1.5128 0,0.3677 0.1156,0.6986 0.3467,0.9928 0.2311,0.3046 0.5935,0.5568 1.0873,0.7564 0.2836,0.105 1.1188,0.3467 2.5056,0.7248 2.0065,0.5358 3.4064,0.9744 4.1996,1.3159 0.7931,0.3414 1.4156,0.8378 1.8673,1.4891 0.4517,0.6514 0.6776,1.4603 0.6776,2.4268 0,0.9455 -0.2758,1.8358 -0.8273,2.671 -0.5515,0.8352 -1.3473,1.4813 -2.3874,1.9383 -1.04,0.457 -2.2166,0.6855 -3.5298,0.6855 -2.1747,0 -3.8319,-0.4517 -4.9718,-1.3552 -1.1398,-0.9035 -1.8673,-2.243 -2.1825,-4.0184 z" />
    <path
       inkscape:connector-curvature="0"
       id="path3111"
       style="font-size:32.272995px;font-style:normal;font-variant:normal;font-weight:normal;font-stretch:normal;text-align:start;line-height:125%;letter-spacing:0px;word-spacing:0px;writing-mode:lr-tb;text-anchor:start;fill:#666666;fill-opacity:1;stroke:none;font-family:Sans;-inkscape-font-specification:Sans"
       d="m 340.4801,41.4812 0,-2.4583 c -1.3026,1.891 -3.0728,2.8365 -5.3105,2.8365 -0.9875,0 -1.9094,-0.1891 -2.7656,-0.5673 -0.8562,-0.3782 -1.4918,-0.8536 -1.9067,-1.4261 -0.415,-0.5726 -0.7065,-1.2738 -0.8746,-2.1038 -0.1156,-0.5568 -0.1734,-1.4392 -0.1734,-2.6474 l 0,-10.3689 2.8365,0 0,9.2816 c 0,1.4813 0.058,2.4793 0.1734,2.9941 0.1786,0.7459 0.5568,1.3316 1.1346,1.757 0.5778,0.4255 1.2921,0.6383 2.1431,0.6383 0.8509,0 1.6494,-0.218 2.3953,-0.654 0.7458,-0.436 1.2737,-1.0296 1.5837,-1.7807 0.3099,-0.7511 0.4648,-1.8411 0.4648,-3.2698 l 0,-8.9665 2.8365,0 0,16.7353 z" />
    <path
       inkscape:connector-curvature="0"
       id="path3113"
       style="font-size:32.272995px;font-style:normal;font-variant:normal;font-weight:normal;font-stretch:normal;text-align:start;line-height:125%;letter-spacing:0px;word-spacing:0px;writing-mode:lr-tb;text-anchor:start;fill:#666666;fill-opacity:1;stroke:none;font-family:Sans;-inkscape-font-specification:Sans"
       d="m 347.4926,21.6415 0,-3.262 2.8365,0 0,3.262 z m 0,19.8397 0,-16.7353 2.8365,0 0,16.7353 z" />
    <path
       inkscape:connector-curvature="0"
       id="path3115"
       style="font-size:32.272995px;font-style:normal;font-variant:normal;font-weight:normal;font-stretch:normal;text-align:start;line-height:125%;letter-spacing:0px;word-spacing:0px;writing-mode:lr-tb;text-anchor:start;fill:#666666;fill-opacity:1;stroke:none;font-family:Sans;-inkscape-font-specification:Sans"
       d="m 360.8557,38.9441 0.4097,2.5056 c -0.7985,0.1681 -1.5128,0.2521 -2.1432,0.2521 -1.0295,0 -1.8279,-0.1628 -2.3952,-0.4885 -0.5673,-0.3257 -0.9665,-0.7538 -1.1977,-1.2843 -0.2311,-0.5305 -0.3466,-1.6467 -0.3466,-3.3486 l 0,-9.6284 -2.0801,0 0,-2.2061 2.0801,0 0,-4.1445 2.8207,-1.7018 0,5.8463 2.8523,0 0,2.2061 -2.8523,0 0,9.7859 c 0,0.809 0.05,1.329 0.1497,1.5601 0.1,0.2311 0.2626,0.415 0.4885,0.5516 0.2259,0.1365 0.5489,0.2048 0.9691,0.2048 0.3152,0 0.7302,-0.037 1.245,-0.1103 z" />
    <path
       inkscape:connector-curvature="0"
       id="path3117"
       style="font-size:32.272995px;font-style:normal;font-variant:normal;font-weight:normal;font-stretch:normal;text-align:start;line-height:125%;letter-spacing:0px;word-spacing:0px;writing-mode:lr-tb;text-anchor:start;fill:#666666;fill-opacity:1;stroke:none;font-family:Sans;-inkscape-font-specification:Sans"
       d="m 375.0696,36.0919 2.9311,0.3624 c -0.4623,1.7124 -1.3185,3.0413 -2.5686,3.9868 -1.2502,0.9455 -2.847,1.4183 -4.7905,1.4183 -2.4478,0 -4.3887,-0.7538 -5.8227,-2.2613 -1.434,-1.5076 -2.151,-3.6218 -2.151,-6.3427 0,-2.8155 0.7248,-5.0007 2.1746,-6.5555 1.4498,-1.5548 3.3302,-2.3322 5.6415,-2.3322 2.2376,0 4.0656,0.7616 5.4839,2.2849 1.4182,1.5233 2.1273,3.6665 2.1273,6.4294 0,0.1681 -0.01,0.4202 -0.016,0.7564 l -12.4806,0 c 0.1051,1.8385 0.6251,3.2462 1.5601,4.2232 0.935,0.9771 2.1011,1.4656 3.4983,1.4656 1.0401,0 1.9278,-0.2732 2.6632,-0.8195 0.7353,-0.5463 1.3184,-1.4182 1.7491,-2.6158 z m -9.3131,-4.5857 9.3447,0 c -0.1261,-1.4077 -0.4833,-2.4635 -1.0716,-3.1674 -0.9035,-1.0926 -2.0749,-1.6389 -3.5141,-1.6389 -1.3027,0 -2.3979,0.436 -3.2856,1.3079 -0.8877,0.872 -1.3789,2.0381 -1.4734,3.4984 z" />
  </g>
</svg>
